<?xml version="1.0" encoding="UTF-8" standalone="no"?>
<svg xmlns="http://www.w3.org/2000/svg" xmlns:xlink="http://www.w3.org/1999/xlink" width="64" height="64" viewBox="0 0 64 64">
  <rect width="64" height="64" fill="#000000"/>
  
  <!-- Car with speedometer -->
  <g transform="translate(32, 32)" fill="#FFFFFF">
    <circle cx="0" cy="0" r="25" fill="none" stroke="#FFFFFF" stroke-width="3" stroke-dasharray="6,4"/>
    
    <!-- Car body -->
    <g transform="translate(0, 3) scale(0.3)">
      <rect x="-35" y="-10" width="70" height="30" rx="5" ry="5"/>
      <rect x="-30" y="-25" width="60" height="15" rx="3" ry="3"/>
      
      <!-- Headlights -->
      <circle cx="-25" cy="10" r="5"/>
      <circle cx="25" cy="10" r="5"/>
      
      <!-- Windshield -->
      <line x1="-25" y1="-10" x2="-15" y2="-25" stroke="#FFFFFF" stroke-width="3"/>
      <line x1="25" y1="-10" x2="15" y2="-25" stroke="#FFFFFF" stroke-width="3"/>
      
      <!-- Grille -->
      <line x1="-15" y1="5" x2="15" y2="5" stroke="#000000" stroke-width="2"/>
      <line x1="-15" y1="0" x2="15" y2="0" stroke="#000000" stroke-width="2"/>
      <line x1="-15" y1="-5" x2="15" y2="-5" stroke="#000000" stroke-width="2"/>
      
      <!-- Wheels -->
      <circle cx="-20" cy="20" r="8"/>
      <circle cx="20" cy="20" r="8"/>
    </g>
  </g>
  
  <!-- Red accent -->
  <rect x="10" y="50" width="44" height="4" fill="#FF0000"/>
</svg> 