<?xml version="1.0" encoding="UTF-8" standalone="no"?>
<svg xmlns="http://www.w3.org/2000/svg" viewBox="0 0 500 300">
  <!-- Background (optional) -->
  <rect width="500" height="300" fill="transparent"/>
  
  <!-- Speedometer arc -->
  <path d="M250 50 A120 120 0 0 1 370 170" stroke="white" stroke-width="16" fill="none" />
  <path d="M250 50 A120 120 0 0 0 130 170" stroke="white" stroke-width="16" fill="none" />
  
  <!-- Car icon -->
  <rect x="190" y="120" width="120" height="45" rx="12" fill="white" />
  <rect x="170" y="145" width="160" height="25" rx="6" fill="white" />
  <circle cx="190" cy="180" r="12" fill="white" />
  <circle cx="310" cy="180" r="12" fill="white" />
  <rect x="210" y="130" width="80" height="12" rx="3" fill="black" />
  <circle cx="205" cy="140" r="9" fill="black" />
  <circle cx="295" cy="140" r="9" fill="black" />
  
  <!-- CAR CITY text -->
  <g transform="translate(100, 240)">
    <!-- CAR text -->
    <path d="M0,0 H25 A15,15 0 0,1 25,30 H0 V0 M0,15 H25" fill="none" stroke="#007bff" stroke-width="8" />
    <path d="M40,0 A15,15 0 0,1 55,15 A15,15 0 0,1 40,30 M40,0 V30" fill="none" stroke="#007bff" stroke-width="8" />
    <path d="M70,0 H95 M70,0 V30 M70,15 H90" fill="none" stroke="#007bff" stroke-width="8" />
    
    <!-- CITY text -->
    <path d="M120,0 H145 M120,0 V30 M120,30 H145" fill="none" stroke="white" stroke-width="8" />
    <path d="M160,0 V30" fill="none" stroke="white" stroke-width="8" />
    <path d="M180,0 V30 M180,0 H205 M180,30 H205" fill="none" stroke="white" stroke-width="8" />
    <path d="M220,0 V30 M220,0 H235 M220,15 H235 M220,30 H235" fill="none" stroke="white" stroke-width="8" />
  </g>
  
  <!-- Motion lines -->
  <path d="M350,240 H380" stroke="white" stroke-width="6" />
  <path d="M360,220 H390" stroke="white" stroke-width="6" />
  <path d="M355,260 H385" stroke="white" stroke-width="6" />
  
  <!-- Tagline -->
  <text x="250" y="290" font-family="Poppins, sans-serif" font-size="14" fill="white" text-anchor="middle">Promises Delivered, Quality Guaranteed</text>
</svg> 