<svg xmlns="http://www.w3.org/2000/svg" viewBox="0 0 500 200">
  <!-- Speedometer arc -->
  <path d="M100 50 A80 80 0 0 1 180 130" stroke="white" stroke-width="12" fill="none" />
  <path d="M100 50 A80 80 0 0 0 20 130" stroke="white" stroke-width="12" fill="none" />
  
  <!-- Car icon -->
  <rect x="60" y="100" width="80" height="30" rx="8" fill="white" />
  <rect x="45" y="115" width="110" height="15" rx="4" fill="white" />
  <circle cx="60" cy="140" r="8" fill="white" />
  <circle cx="140" cy="140" r="8" fill="white" />
  <rect x="75" y="105" width="50" height="8" rx="2" fill="black" />
  <circle cx="70" cy="110" r="6" fill="black" />
  <circle cx="130" cy="110" r="6" fill="black" />
  
  <!-- Text "CAR CITY" with motion lines -->
  <g>
    <text x="220" y="120" font-family="Arial, sans-serif" font-weight="bold" font-size="60" fill="#c62828">CAR CITY</text>
    
    <!-- Motion lines -->
    <g fill="#c62828">
      <!-- C motion lines -->
      <rect x="220" y="125" width="15" height="2" />
      <rect x="220" y="115" width="15" height="2" />
      <rect x="220" y="105" width="15" height="2" />
      <rect x="220" y="135" width="15" height="2" />
      
      <!-- A motion lines -->
      <rect x="260" y="125" width="15" height="2" />
      <rect x="260" y="115" width="15" height="2" />
      <rect x="260" y="105" width="15" height="2" />
      <rect x="260" y="135" width="15" height="2" />
      
      <!-- R motion lines -->
      <rect x="300" y="125" width="15" height="2" />
      <rect x="300" y="115" width="15" height="2" />
      <rect x="300" y="105" width="15" height="2" />
      <rect x="300" y="135" width="15" height="2" />
      
      <!-- C motion lines -->
      <rect x="340" y="125" width="15" height="2" />
      <rect x="340" y="115" width="15" height="2" />
      <rect x="340" y="105" width="15" height="2" />
      <rect x="340" y="135" width="15" height="2" />
      
      <!-- I motion lines -->
      <rect x="380" y="125" width="15" height="2" />
      <rect x="380" y="115" width="15" height="2" />
      <rect x="380" y="105" width="15" height="2" />
      <rect x="380" y="135" width="15" height="2" />
      
      <!-- T motion lines -->
      <rect x="400" y="125" width="15" height="2" />
      <rect x="400" y="115" width="15" height="2" />
      <rect x="400" y="105" width="15" height="2" />
      <rect x="400" y="135" width="15" height="2" />
      
      <!-- Y motion lines -->
      <rect x="440" y="125" width="15" height="2" />
      <rect x="440" y="115" width="15" height="2" />
      <rect x="440" y="105" width="15" height="2" />
      <rect x="440" y="135" width="15" height="2" />
    </g>
  </g>
</svg> 